<?xml version="1.0" encoding="UTF-8" standalone="no"?>
<svg width="352px" height="118px" viewBox="0 0 352 118" version="1.1" xmlns="http://www.w3.org/2000/svg" xmlns:xlink="http://www.w3.org/1999/xlink" xmlns:sketch="http://www.bohemiancoding.com/sketch/ns">
    <!-- Generator: Sketch 3.0 (7574) - http://www.bohemiancoding.com/sketch -->
    <title>Slice 1</title>
    <description>Created with Sketch.</description>
    <defs></defs>
    <g id="Page-1" stroke="none" stroke-width="1" fill="none" fill-rule="evenodd" sketch:type="MSPage">
        <g id="behance" sketch:type="MSLayerGroup" transform="translate(0.000000, 78.000000)" fill="#005CFF">
            <g id="Group" sketch:type="MSShapeGroup">
                <path d="M25.0365903,17.8354098 C25.0365903,17.8354098 30.8960208,17.3934426 30.8960208,10.416612 C30.8960208,3.43956284 26.1017847,0.0347540984 20.0292292,0.0347540984 L8.85179167,0.0347540984 L8.52349306,0.0347540984 L0.0471458333,0.0347540984 L0.0471458333,39.0251366 L8.52349306,39.0251366 L8.85179167,39.0251366 L20.0294444,39.0251366 C20.0294444,39.0251366 32.2279444,39.4155191 32.2279444,27.5169399 C32.2279444,27.5167213 32.7605417,17.8354098 25.0365903,17.8354098 L25.0365903,17.8354098 Z M8.85179167,6.96415301 L18.5911736,6.96415301 L20.0294444,6.96415301 C20.0294444,6.96415301 22.7460347,6.96415301 22.7460347,11.0205464 C22.7460347,15.0769399 21.1480278,15.6651366 19.3368958,15.6651366 L8.85179167,15.6651366 L8.85179167,6.96415301 L8.85179167,6.96415301 Z M19.5142847,32.0953005 L8.85179167,32.0953005 L8.85179167,21.6754098 L20.0294444,21.6754098 C20.0294444,21.6754098 24.0777431,21.6214208 24.0777431,27.0297268 C24.0777431,31.539235 21.1165972,32.0500546 19.5142847,32.0953005 L19.5142847,32.0953005 Z" id="Shape"></path>
                <g transform="translate(33.798611, 2.404372)">
                    <path d="M14.6985208,7.55016393 C-0.0688888889,7.55016393 -0.0555416667,22.5304918 -0.0555416667,22.5304918 C-0.0555416667,22.5304918 -1.06906944,37.4351913 14.6989514,37.4351913 C14.6989514,37.4351913 27.8390764,38.1971585 27.8390764,27.0666667 L21.0810764,27.0666667 C21.0810764,27.0666667 21.3062569,31.259235 14.9239167,31.259235 C14.9239167,31.259235 8.16591667,31.7182514 8.16591667,24.4749727 L28.0640417,24.4749727 C28.0642569,24.4751913 30.2411458,7.55016393 14.6985208,7.55016393 L14.6985208,7.55016393 Z M20.7052014,19.2710383 L8.09078472,19.2710383 C8.09078472,19.2710383 8.91680556,13.260765 14.8487847,13.260765 C20.7807639,13.260765 20.7052014,19.2710383 20.7052014,19.2710383 L20.7052014,19.2710383 Z" id="Shape"></path>
                    <rect id="Rectangle-path" x="6.45833333" y="0" width="15.8431528" height="4.80262295"></rect>
                </g>
            </g>
        </g>
        <g id="behance-2" sketch:type="MSLayerGroup" fill="#D4D4D4">
            <g id="Group" sketch:type="MSShapeGroup">
                <path d="M25.0365903,17.8354098 C25.0365903,17.8354098 30.8960208,17.3934426 30.8960208,10.416612 C30.8960208,3.43956284 26.1017847,0.0347540984 20.0292292,0.0347540984 L8.85179167,0.0347540984 L8.52349306,0.0347540984 L0.0471458333,0.0347540984 L0.0471458333,39.0251366 L8.52349306,39.0251366 L8.85179167,39.0251366 L20.0294444,39.0251366 C20.0294444,39.0251366 32.2279444,39.4155191 32.2279444,27.5169399 C32.2279444,27.5167213 32.7605417,17.8354098 25.0365903,17.8354098 L25.0365903,17.8354098 Z M8.85179167,6.96415301 L18.5911736,6.96415301 L20.0294444,6.96415301 C20.0294444,6.96415301 22.7460347,6.96415301 22.7460347,11.0205464 C22.7460347,15.0769399 21.1480278,15.6651366 19.3368958,15.6651366 L8.85179167,15.6651366 L8.85179167,6.96415301 L8.85179167,6.96415301 Z M19.5142847,32.0953005 L8.85179167,32.0953005 L8.85179167,21.6754098 L20.0294444,21.6754098 C20.0294444,21.6754098 24.0777431,21.6214208 24.0777431,27.0297268 C24.0777431,31.539235 21.1165972,32.0500546 19.5142847,32.0953005 L19.5142847,32.0953005 Z" id="Shape"></path>
                <g transform="translate(33.798611, 2.404372)">
                    <path d="M14.6985208,7.55016393 C-0.0688888889,7.55016393 -0.0555416667,22.5304918 -0.0555416667,22.5304918 C-0.0555416667,22.5304918 -1.06906944,37.4351913 14.6989514,37.4351913 C14.6989514,37.4351913 27.8390764,38.1971585 27.8390764,27.0666667 L21.0810764,27.0666667 C21.0810764,27.0666667 21.3062569,31.259235 14.9239167,31.259235 C14.9239167,31.259235 8.16591667,31.7182514 8.16591667,24.4749727 L28.0640417,24.4749727 C28.0642569,24.4751913 30.2411458,7.55016393 14.6985208,7.55016393 L14.6985208,7.55016393 Z M20.7052014,19.2710383 L8.09078472,19.2710383 C8.09078472,19.2710383 8.91680556,13.260765 14.8487847,13.260765 C20.7807639,13.260765 20.7052014,19.2710383 20.7052014,19.2710383 L20.7052014,19.2710383 Z" id="Shape"></path>
                    <rect id="Rectangle-path" x="6.45833333" y="0" width="15.8431528" height="4.80262295"></rect>
                </g>
            </g>
        </g>
        <path d="M81,20 C81,16.3733333 81.8933333,13.0266667 83.68,9.96 C85.4666667,6.89333333 87.8933333,4.46666667 90.96,2.68 C94.0266667,0.893333333 97.3733333,0 101,0 C104.626667,0 107.973333,0.893333333 111.04,2.68 C114.106667,4.46666667 116.533333,6.89333333 118.32,9.96 C120.106667,13.0266667 121,16.3733333 121,20 C121,23.6266667 120.106667,26.9733333 118.32,30.04 C116.533333,33.1066667 114.106667,35.5333333 111.04,37.32 C107.973333,39.1066667 104.626667,40 101,40 C97.3733333,40 94.0266667,39.1066667 90.96,37.32 C87.8933333,35.5333333 85.4666667,33.1066667 83.68,30.04 C81.8933333,26.9733333 81,23.6266667 81,20 L81,20 Z M84.3507853,19.9384929 C84.3507853,24.1197738 85.7530162,27.8051976 88.5574778,30.9947644 C89.8395174,28.4752747 91.8694135,26.0763988 94.6471659,23.7981368 C97.4249184,21.5198748 100.135898,20.0859099 102.780105,19.4962421 C102.379467,18.5581342 101.992185,17.7138371 101.618256,16.9633508 C97.0242811,18.4375203 92.0563776,19.1746051 86.7145459,19.1746051 C85.6728887,19.1746051 84.8983231,19.1612035 84.3908491,19.1344005 C84.3908491,19.2416128 84.3841718,19.3756282 84.3708172,19.5364467 C84.3574626,19.6972652 84.3507853,19.8312806 84.3507853,19.9384929 L84.3507853,19.9384929 Z M84.7696335,16.0449874 C85.3566057,16.0987654 86.2237238,16.1256545 87.3709876,16.1256545 C91.8266404,16.1256545 96.0555083,15.5206515 100.057592,14.3106457 C98.0298694,10.6806283 95.8020431,7.65561373 93.3741126,5.23560209 C91.2663487,6.31116282 89.4587411,7.80350333 87.9512897,9.71262362 C86.4438383,11.6217439 85.3832863,13.7325318 84.7696335,16.0449874 L84.7696335,16.0449874 Z M90.8429319,33.3165133 C93.8648207,35.6779303 97.2744741,36.8586387 101.071892,36.8586387 C103.050828,36.8586387 105.016393,36.4829588 106.968586,35.7315988 C106.433739,31.1429363 105.390786,26.7018624 103.839728,22.408377 C101.379429,22.9450626 98.8990736,24.300194 96.3986611,26.4737709 C93.8982487,28.6473479 92.046339,30.928262 90.8429319,33.3165133 L90.8429319,33.3165133 Z M96.9162304,3.9104082 C99.2532817,6.33544061 101.41771,9.36006894 103.409515,12.9842932 C107.021322,11.4653169 109.743455,9.53328554 111.575916,7.18819926 C108.495258,4.62992331 104.963123,3.35078534 100.979513,3.35078534 C99.6250854,3.35078534 98.2706579,3.53732629 96.9162304,3.9104082 L96.9162304,3.9104082 Z M104.874346,15.8166262 C105.276071,16.6702138 105.73136,17.7505356 106.240212,19.0575916 C108.222058,18.8708693 110.377984,18.7775082 112.707992,18.7775082 C114.368457,18.7775082 116.015531,18.8175201 117.649215,18.8975439 C117.434961,15.2697967 116.122658,12.0421686 113.712305,9.21465969 C111.971495,11.8020971 109.025508,14.0027526 104.874346,15.8166262 L104.874346,15.8166262 Z M107.17801,21.7706162 C108.530338,25.7160124 109.445148,29.7680408 109.92244,33.9267016 C112.017222,32.5671394 113.727519,30.821035 115.05333,28.6883885 C116.379141,26.5557419 117.174628,24.2498179 117.439791,21.7706162 C115.504106,21.6373258 113.740777,21.5706806 112.149803,21.5706806 C110.691411,21.5706806 109.034146,21.6373258 107.17801,21.7706162 L107.17801,21.7706162 Z" id="Shape" fill="#D4D4D4" sketch:type="MSShapeGroup"></path>
        <path d="M81,98 C81,94.3733333 81.8933333,91.0266667 83.68,87.96 C85.4666667,84.8933333 87.8933333,82.4666667 90.96,80.68 C94.0266667,78.8933333 97.3733333,78 101,78 C104.626667,78 107.973333,78.8933333 111.04,80.68 C114.106667,82.4666667 116.533333,84.8933333 118.32,87.96 C120.106667,91.0266667 121,94.3733333 121,98 C121,101.626667 120.106667,104.973333 118.32,108.04 C116.533333,111.106667 114.106667,113.533333 111.04,115.32 C107.973333,117.106667 104.626667,118 101,118 C97.3733333,118 94.0266667,117.106667 90.96,115.32 C87.8933333,113.533333 85.4666667,111.106667 83.68,108.04 C81.8933333,104.973333 81,101.626667 81,98 L81,98 Z M84.3507853,97.9384929 C84.3507853,102.119774 85.7530162,105.805198 88.5574778,108.994764 C89.8395174,106.475275 91.8694135,104.076399 94.6471659,101.798137 C97.4249184,99.5198748 100.135898,98.0859099 102.780105,97.4962421 C102.379467,96.5581342 101.992185,95.7138371 101.618256,94.9633508 C97.0242811,96.4375203 92.0563776,97.1746051 86.7145459,97.1746051 C85.6728887,97.1746051 84.8983231,97.1612035 84.3908491,97.1344005 C84.3908491,97.2416128 84.3841718,97.3756282 84.3708172,97.5364467 C84.3574626,97.6972652 84.3507853,97.8312806 84.3507853,97.9384929 L84.3507853,97.9384929 Z M84.7696335,94.0449874 C85.3566057,94.0987654 86.2237238,94.1256545 87.3709876,94.1256545 C91.8266404,94.1256545 96.0555083,93.5206515 100.057592,92.3106457 C98.0298694,88.6806283 95.8020431,85.6556137 93.3741126,83.2356021 C91.2663487,84.3111628 89.4587411,85.8035033 87.9512897,87.7126236 C86.4438383,89.6217439 85.3832863,91.7325318 84.7696335,94.0449874 L84.7696335,94.0449874 Z M90.8429319,111.316513 C93.8648207,113.67793 97.2744741,114.858639 101.071892,114.858639 C103.050828,114.858639 105.016393,114.482959 106.968586,113.731599 C106.433739,109.142936 105.390786,104.701862 103.839728,100.408377 C101.379429,100.945063 98.8990736,102.300194 96.3986611,104.473771 C93.8982487,106.647348 92.046339,108.928262 90.8429319,111.316513 L90.8429319,111.316513 Z M96.9162304,81.9104082 C99.2532817,84.3354406 101.41771,87.3600689 103.409515,90.9842932 C107.021322,89.4653169 109.743455,87.5332855 111.575916,85.1881993 C108.495258,82.6299233 104.963123,81.3507853 100.979513,81.3507853 C99.6250854,81.3507853 98.2706579,81.5373263 96.9162304,81.9104082 L96.9162304,81.9104082 Z M104.874346,93.8166262 C105.276071,94.6702138 105.73136,95.7505356 106.240212,97.0575916 C108.222058,96.8708693 110.377984,96.7775082 112.707992,96.7775082 C114.368457,96.7775082 116.015531,96.8175201 117.649215,96.8975439 C117.434961,93.2697967 116.122658,90.0421686 113.712305,87.2146597 C111.971495,89.8020971 109.025508,92.0027526 104.874346,93.8166262 L104.874346,93.8166262 Z M107.17801,99.7706162 C108.530338,103.716012 109.445148,107.768041 109.92244,111.926702 C112.017222,110.567139 113.727519,108.821035 115.05333,106.688388 C116.379141,104.555742 117.174628,102.249818 117.439791,99.7706162 C115.504106,99.6373258 113.740777,99.5706806 112.149803,99.5706806 C110.691411,99.5706806 109.034146,99.6373258 107.17801,99.7706162 L107.17801,99.7706162 Z" id="Shape-2" fill="#EA4C89" sketch:type="MSShapeGroup"></path>
        <g id="LinkedIn_Logo" sketch:type="MSLayerGroup" transform="translate(139.000000, 78.000000)">
            <g id="layer1" transform="translate(0.226352, 0.019600)" sketch:type="MSShapeGroup">
                <g id="g3019" transform="translate(72.670688, 19.915515) scale(1, -1) translate(-72.670688, -19.915515) translate(0.092576, 0.068235)">
                    <path d="M107.235344,36.5380472 C107.235344,38.1046591 108.501806,39.3754142 110.06414,39.3754142 L142.6862,39.3754142 C144.248482,39.3754142 145.514996,38.1046591 145.514996,36.5380472 L145.514996,2.60343377 C145.514996,1.03629261 144.248482,-0.233933264 142.6862,-0.233933264 L110.06414,-0.233933264 C108.501806,-0.233933264 107.235344,1.03629261 107.235344,2.60343377 L107.235344,36.5380472 L107.235344,36.5380472 Z" id="path14" fill="#006699"></path>
                    <path d="M0.0780343384,6.19711446 L16.0532488,6.19711446 L16.0532488,11.5897525 L5.85926698,11.5897525 L5.85926698,32.1642361 L0.0780343384,32.1642361 L0.0780343384,6.19711446 L0.0780343384,6.19711446 Z" id="path16" fill="#000000"></path>
                    <path d="M24.1412815,6.19711446 L24.1412815,24.082424 L18.3595341,24.082424 L18.3595341,6.19711446 L24.1412815,6.19711446 L24.1412815,6.19711446 Z M21.2504078,26.5244332 C23.266638,26.5244332 24.5215702,27.8978649 24.5215702,29.6153162 C24.4839943,31.3698156 23.266638,32.7046113 21.2888588,32.7046113 C19.3108221,32.7046113 18.0176964,31.3698156 18.0176964,29.6153162 C18.0176964,27.8978649 19.2723712,26.5244332 21.2126775,26.5244332 L21.2502534,26.5244332 L21.2504078,26.5244332 Z" id="path18" fill="#000000"></path>
                    <path d="M26.8257966,6.19711446 L32.6075954,6.19711446 L32.6075954,16.1853239 C32.6075954,16.7198773 32.6451713,17.2539014 32.7981001,17.6360277 C33.2158103,18.7035467 34.1670983,19.8097017 35.7643829,19.8097017 C37.856743,19.8097017 38.6937076,18.1689933 38.6937076,15.7661494 L38.6937076,6.19711446 L44.4749402,6.19711446 L44.4749402,16.4526006 C44.4749402,21.9463275 41.6222601,24.502657 37.818292,24.502657 C34.6994407,24.502657 33.3299278,22.7100508 32.569093,21.4890462 L32.6076984,21.4890462 L32.6076984,24.082424 L26.8258995,24.082424 C26.9018234,22.404138 26.8258995,6.19711446 26.8258995,6.19711446 L26.8257966,6.19711446 Z" id="path20" fill="#000000"></path>
                    <path d="M52.6313302,32.1642361 L46.8493254,32.1642361 L46.8493254,6.19711446 L52.6313302,6.19711446 L52.6313302,11.9956956 L54.0763038,13.8661032 L58.6028616,6.19711446 L65.715465,6.19711446 L58.1085069,17.2994178 L64.7648977,24.8530277 L57.8043479,24.8530277 C57.8043479,24.8530277 53.0498125,18.0948968 52.6313302,17.293596 L52.6313302,32.1642361 L52.6313302,32.1642361 Z" id="path22" fill="#000000"></path>
                    <path d="M81.1774339,13.6575744 C81.2533578,14.1169728 81.3677326,14.998192 81.3677326,15.9942607 C81.3677326,20.6178829 79.0850738,25.3113675 73.0756062,25.3113675 C66.6471415,25.3113675 63.6803954,20.0838588 63.6803954,15.3427407 C63.6803954,9.4785313 67.2938588,5.8160467 73.6079486,5.8160467 C76.1185336,5.8160467 78.438408,6.19711446 80.3405207,6.99841528 L79.57948,10.9244717 C78.0201831,10.3925647 76.422641,10.1268757 74.4449132,10.1268757 C71.7442868,10.1268757 69.3862189,11.2663742 69.1957142,13.6956812 L81.1774339,13.6586329 L81.1774339,13.6575744 Z M69.1580353,17.6794271 C69.3100891,19.2058152 70.2991074,21.4572905 72.7714988,21.4572905 C75.3954291,21.4572905 76.0044161,19.0528588 76.0044161,17.6794271 L69.1580353,17.6794271 L69.1580353,17.6794271 Z" id="path24" fill="#000000"></path>
                    <path d="M95.6389057,32.1642361 L95.6389057,23.175271 L95.5629818,23.175271 C94.7260172,24.4333239 92.9759582,25.2727315 90.6563926,25.2727315 C86.2057072,25.2727315 82.2881363,21.6102469 82.3258152,15.3538552 C82.3258152,9.55421559 85.8634062,5.77741067 90.2755892,5.77741067 C92.6718507,5.77741067 94.9539948,6.84598818 96.0950669,8.90640039 L96.2094417,8.90640039 L96.4376252,6.19711446 L101.572964,6.19711446 C101.496783,7.45622586 101.420138,9.6309584 101.420138,11.7670549 L101.420138,32.1642361 L95.6389057,32.1642361 L95.6389057,32.1642361 Z M95.6389057,14.4758116 C95.6389057,14.0185303 95.6008151,13.5601904 95.5245308,13.1791227 C95.1826931,11.5384142 93.8129228,10.3941524 92.1397657,10.3941524 C89.7432982,10.3941524 88.1837439,12.3778218 88.1837439,15.5062823 C88.1837439,18.4436796 89.5153206,20.8089461 92.177496,20.8089461 C93.9649765,20.8089461 95.2204234,19.5503639 95.5629818,17.9863983 C95.6389057,17.6423788 95.6389057,17.2607818 95.6389057,16.9178208 L95.6389057,14.4758116 L95.6389057,14.4758116 Z" id="path26" fill="#000000"></path>
                    <path d="M118.839091,6.2182849 L118.839091,24.1041237 L113.057292,24.1041237 L113.057292,6.2182849 L118.839091,6.2182849 L118.839091,6.2182849 Z M115.948166,26.5461329 C117.964396,26.5461329 119.219328,27.9195646 119.219328,29.6359573 C119.181752,31.3909861 117.964396,32.726311 115.986411,32.726311 C114.008632,32.726311 112.715506,31.3909861 112.715506,29.6359573 C112.715506,27.9195646 113.970181,26.5461329 115.910487,26.5461329 L115.948063,26.5461329 L115.948166,26.5461329 Z" id="path28" fill="#FFFFFF"></path>
                    <path d="M122.038344,6.2182849 L127.820092,6.2182849 L127.820092,16.2064943 C127.820092,16.7410477 127.857668,17.2750718 128.010339,17.6571981 C128.428307,18.7252464 129.379646,19.8314014 130.976879,19.8314014 C133.069034,19.8314014 133.905947,18.1912222 133.905947,15.7867905 L133.905947,6.2182849 L139.687231,6.2182849 L139.687231,16.473771 C139.687231,21.9674979 136.834808,24.5238275 133.03084,24.5238275 C129.911731,24.5238275 128.542424,22.7312212 127.781641,21.5102166 L127.820246,21.5102166 L127.820246,24.1041237 L122.038499,24.1041237 C122.114371,22.4258377 122.038499,6.2182849 122.038499,6.2182849 L122.038344,6.2182849 Z" id="path30" fill="#FFFFFF"></path>
                </g>
            </g>
        </g>
        <g id="LinkedIn_Logo-2" sketch:type="MSLayerGroup" transform="translate(139.000000, 1.000000)">
            <g id="layer1" transform="translate(0.032073, 0.019798)" sketch:type="MSShapeGroup">
                <g id="g3019" transform="translate(73.092841, 19.962418) scale(1, -1) translate(-73.092841, -19.962418) translate(0.092841, -0.037582)">
                    <path d="M110.379318,39.9751659 L143.094794,39.9751659 C144.66155,39.9751659 145.931691,38.6915748 145.931691,37.1091385 L145.931691,2.83175129 C145.931691,1.24878041 144.66155,-0.0342760247 143.094794,-0.0342760247 L110.379318,-0.0342760247 C108.812511,-0.0342760247 107.542422,1.24878041 107.542422,2.83175129 L107.542422,37.1091385 C107.542422,38.6915748 108.812511,39.9751659 110.379318,39.9751659 Z" id="path14" fill="#D4D4D4"></path>
                    <path d="M0.0782577966,6.46173178 L16.0992187,6.46173178 L16.0992187,11.908841 L5.87604551,11.908841 L5.87604551,32.6911476 L0.0782577966,32.6911476 L0.0782577966,6.46173178 L0.0782577966,6.46173178 Z" id="path16" fill="#D4D4D4"></path>
                    <path d="M24.2104122,6.46173178 L24.2104122,24.527701 L18.4121083,24.527701 L18.4121083,6.46173178 L24.2104122,6.46173178 L24.2104122,6.46173178 Z M21.3112602,26.994377 C23.3332641,26.994377 24.5917899,28.3816818 24.5917899,30.116481 C24.5541064,31.8887027 23.3332641,33.2369811 21.3498213,33.2369811 C19.3661204,33.2369811 18.0692916,31.8887027 18.0692916,30.116481 C18.0692916,28.3816818 19.3275593,26.994377 21.2734218,26.994377 L21.3111054,26.994377 L21.3112602,26.994377 Z" id="path18" fill="#D4D4D4"></path>
                    <path d="M26.9026146,6.46173178 L32.7009701,6.46173178 L32.7009701,16.5508322 C32.7009701,17.0907851 32.7386536,17.6302034 32.8920203,18.0161896 C33.3109267,19.0944916 34.2649388,20.2118199 35.8667974,20.2118199 C37.9651491,20.2118199 38.8045104,18.5545387 38.8045104,16.1274236 L38.8045104,6.46173178 L44.6022981,6.46173178 L44.6022981,16.8208087 C44.6022981,22.3700277 41.7414491,24.9521788 37.926588,24.9521788 C34.7988056,24.9521788 33.425371,23.1414654 32.6623574,21.9081274 L32.7010734,21.9081274 L32.7010734,24.527701 L26.9027178,24.527701 C26.9788592,22.8324627 26.9027178,6.46173178 26.9027178,6.46173178 L26.9026146,6.46173178 Z" id="path20" fill="#D4D4D4"></path>
                    <path d="M52.7820446,32.6911476 L46.9834826,32.6911476 L46.9834826,6.46173178 L52.7820446,6.46173178 L52.7820446,12.3188844 L54.231156,14.208185 L58.7706761,6.46173178 L65.9036471,6.46173178 L58.2749057,17.6761796 L64.9503577,25.3060886 L57.9698758,25.3060886 C57.9698758,25.3060886 53.2017253,18.4796937 52.7820446,17.670299 L52.7820446,32.6911476 L52.7820446,32.6911476 Z" id="path22" fill="#D4D4D4"></path>
                    <path d="M81.4098926,13.9975499 C81.4860339,14.4615887 81.6007363,15.3517091 81.6007363,16.3578391 C81.6007363,21.0281646 79.3115409,25.7690581 73.2848646,25.7690581 C66.8379915,25.7690581 63.8627498,20.4887463 63.8627498,15.6997381 C63.8627498,9.77629424 67.4865607,6.07681485 73.8187315,6.07681485 C76.3365057,6.07681485 78.6630233,6.46173178 80.5705829,7.27112655 L79.8073629,11.2368401 C78.2436007,10.6995603 76.641484,10.4311876 74.6580928,10.4311876 C71.9497329,10.4311876 69.5849124,11.5821962 69.3938622,14.0360416 L81.4098926,13.9986191 L81.4098926,13.9975499 Z M69.3560755,18.0600273 C69.5085646,19.6018335 70.5004151,21.876051 72.9798864,21.876051 C75.6113306,21.876051 76.2220615,19.4473321 76.2220615,18.0600273 L69.3560755,18.0600273 L69.3560755,18.0600273 Z" id="path24" fill="#D4D4D4"></path>
                    <path d="M95.9127761,32.6911476 L95.9127761,23.6113848 L95.8366348,23.6113848 C94.9972735,24.8821453 93.242203,25.7300318 90.9159952,25.7300318 C86.4525649,25.7300318 82.5237757,22.0305524 82.5615624,15.7109649 C82.5615624,9.85274302 86.1092836,6.03778855 90.5341013,6.03778855 C92.9372248,6.03778855 95.225904,7.11715978 96.3702436,9.19838424 L96.4849459,9.19838424 L96.7137829,6.46173178 L101.863827,6.46173178 C101.787428,7.73356147 101.710564,9.93026101 101.710564,12.0879342 L101.710564,32.6911476 L95.9127761,32.6911476 L95.9127761,32.6911476 Z M95.9127761,14.8240521 C95.9127761,14.3621518 95.8745764,13.8991822 95.7980738,13.5142653 C95.4552571,11.8569841 94.0815644,10.7011641 92.403616,10.7011641 C90.000286,10.7011641 88.4362658,12.7048705 88.4362658,15.8649316 C88.4362658,18.8319996 89.7716556,21.2211576 92.4414544,21.2211576 C94.2340535,21.2211576 95.4930955,19.9498625 95.8366348,18.3700993 C95.9127761,18.0226049 95.9127761,17.6371533 95.9127761,17.2907281 L95.9127761,14.8240521 L95.9127761,14.8240521 Z" id="path26" fill="#D4D4D4"></path>
                    <path d="M119.179397,6.48311606 L119.179397,24.5496199 L113.381042,24.5496199 L113.381042,6.48311606 L119.179397,6.48311606 L119.179397,6.48311606 Z M116.280194,27.0162959 C118.302198,27.0162959 119.560723,28.4036006 119.560723,30.1373306 C119.52304,31.9100869 118.302198,33.2589 116.318548,33.2589 C114.335105,33.2589 113.038277,31.9100869 113.038277,30.1373306 C113.038277,28.4036006 114.296544,27.0162959 116.242407,27.0162959 L116.28009,27.0162959 L116.280194,27.0162959 Z" id="path28" fill="#FFFFFF"></path>
                    <path d="M122.387812,6.48311606 L128.186116,6.48311606 L128.186116,16.5722165 C128.186116,17.1121694 128.223799,17.6515877 128.376908,18.0375739 C128.796072,19.1164105 129.750136,20.2337388 131.351943,20.2337388 C133.450088,20.2337388 134.289398,18.5769922 134.289398,16.1482733 L134.289398,6.48311606 L140.087237,6.48311606 L140.087237,16.8421929 C140.087237,22.391412 137.226647,24.9735631 133.411785,24.9735631 C130.283745,24.9735631 128.910517,23.1628497 128.147555,21.9295117 L128.186271,21.9295117 L128.186271,24.5496199 L122.387967,24.5496199 C122.464057,22.8543816 122.387967,6.48311606 122.387967,6.48311606 L122.387812,6.48311606 Z" id="path30" fill="#FFFFFF"></path>
                </g>
            </g>
        </g>
        <path d="M351,82.7214724 C349.27087,83.522454 347.412255,84.0635583 345.46199,84.3069939 C347.452675,83.0608589 348.98182,81.0876074 349.701625,78.7361963 C347.83831,79.8903067 345.774775,80.7280982 343.57823,81.1796319 C341.81949,79.2225767 339.31345,78 336.53998,78 C331.21488,78 326.897225,82.5082209 326.897225,88.0689571 C326.897225,88.8581595 326.98253,89.6267485 327.146795,90.363681 C319.132825,89.9438037 312.027835,85.9349693 307.271905,79.8429448 C306.441885,81.3300613 305.966245,83.0596319 305.966245,84.9050307 C305.966245,88.3985276 307.668585,91.4804908 310.255935,93.286135 C308.675325,93.233865 307.18848,92.7808589 305.88846,92.0267485 C305.88752,92.0687117 305.88752,92.1109202 305.88752,92.1533742 C305.88752,97.0319018 309.21136,101.101595 313.622545,102.026748 C312.81344,102.256933 311.961565,102.379877 311.082195,102.379877 C310.460855,102.379877 309.856905,102.316564 309.267995,102.199264 C310.495165,106.199509 314.05612,109.11092 318.27578,109.191902 C314.975675,111.892761 310.818055,113.502331 306.30018,113.502331 C305.52186,113.502331 304.75435,113.454724 304,113.361472 C308.267365,116.21865 313.335845,117.88589 318.781265,117.88589 C336.51742,117.88589 346.216575,102.542577 346.216575,89.236319 C346.216575,88.7997546 346.207175,88.3656442 346.18861,87.9334969 C348.072605,86.5141104 349.707265,84.7406135 351,82.7214724 L351,82.7214724 Z" id="Shape" fill="#3AAAE1" sketch:type="MSShapeGroup"></path>
        <path d="M346.46199,7.33163056 C348.452675,6.08062788 349.98182,4.09966833 350.701625,1.73907209 C348.83831,2.89769076 346.774775,3.73875479 344.57823,4.19205234 C342.81949,2.22735238 340.31345,1 337.53998,1 C332.21488,1 327.897225,5.5258311 327.897225,11.1082889 C327.897225,11.9005742 327.98253,12.6721655 328.146795,13.4119766 C320.132825,12.9904592 313.027835,8.9659653 308.271905,2.85014379 C307.441885,4.3430694 306.966245,6.07939609 306.966245,7.93200345 C306.966245,11.4391469 308.668585,14.533149 311.255935,16.3458464 C309.675325,16.2933723 308.18848,15.8385966 306.88846,15.0815405 C306.88752,15.1236676 306.88752,15.166041 306.88752,15.2086609 C306.88752,20.1062452 310.21136,24.1918357 314.622545,25.120603 C313.81344,25.3516862 312.961565,25.4751112 312.082195,25.4751112 C311.460855,25.4751112 310.856905,25.411551 310.267995,25.2937922 C311.495165,29.3096635 315.05612,32.2324473 319.27578,32.3137452 C315.975675,35.0251543 311.818055,36.6410123 307.30018,36.6410123 C306.52186,36.6410123 305.75435,36.5932189 305,36.4996031 C309.267365,39.3679419 314.335845,41.0416938 319.781265,41.0416938 C337.51742,41.0416938 347.216575,25.6384461 347.216575,12.2802109 C347.216575,11.8419411 347.207175,11.406135 347.18861,10.9722997 C349.072605,9.54736867 350.707265,7.76694402 352,5.73991564 C350.27087,6.54402607 348.412255,7.08724406 346.46199,7.33163056 Z" id="Shape-3" fill="#D4D4D4" sketch:type="MSShapeGroup"></path>
    </g>
</svg>